PathFileType	4	(X/Y/Z)	D:\TRACE\v60_Jaco2_6-2-23\v60_baseline_1-platform.trc
DataRate	CameraRate	NumFrames	NumMarkers	Units	OrigDataRate	OrigDataStartFrame	OrigNumFrames
100.00	100.00	      30	5	mm	100.00	2345	      6251
Frame#	Time	Left_Front			Right_Front			Left_Aft			Right_Aft			Post			
		X1	Y1	Z1	X2	Y2	Z2	X3	Y3	Z3	X4	Y4	Z4	X5	Y5	Z5	

2345	23.440	-800.55963	8.67194	-638.89954	769.28485	10.13121	-644.37830	-708.75037	8.02601	496.07169	734.47955	6.93254	505.27841	-14.10192	1308.13696	-961.27100	
2346	23.450	-800.62500	8.74667	-638.89124	769.38776	10.11866	-644.38318	-708.72742	8.00478	496.10626	734.52832	6.95307	505.26208	-14.12464	1308.18958	-961.22052	
2347	23.460	-800.64160	8.88224	-638.76892	769.41327	10.17620	-644.36511	-708.70007	8.00820	496.12460	734.59570	6.98027	505.30676	-14.31255	1308.20886	-961.38110	
2348	23.470	-800.66278	8.87577	-638.70374	769.41180	10.25453	-644.33704	-708.70911	7.96788	496.14633	734.63123	7.02116	505.35376	-14.31493	1308.28345	-961.46869	
2349	23.480	-800.64148	8.85693	-638.71368	769.38550	10.20288	-644.45123	-708.70428	7.92945	496.17175	734.57269	6.98324	505.32889	-14.12080	1308.28528	-961.66339	
2350	23.490	-800.58411	8.76578	-638.82977	769.40137	10.15197	-644.40363	-708.67920	7.95798	496.11826	734.69836	6.98511	505.27386	-14.09405	1308.26440	-961.72333	
2351	23.500	-800.55017	8.72644	-638.85986	769.42847	10.12696	-644.37115	-708.70581	8.02272	496.09833	734.96259	7.17185	505.31277	-14.09967	1308.27771	-961.77826	
2352	23.510	-800.58423	8.81042	-638.81366	769.38696	10.16557	-644.41699	-708.74536	8.09616	496.07370	733.53290	6.91842	505.73392	-14.12302	1308.26477	-961.85260	
2353	23.520	-800.65918	8.82482	-638.80298	769.38116	10.17309	-644.42072	-708.80737	8.12363	496.04807	733.55249	6.91129	505.73831	-14.14333	1308.29370	-961.90759	
2354	23.530	-800.66687	8.81705	-638.76489	769.42145	10.20792	-644.36517	-708.79059	8.07491	496.11530	733.48993	6.89095	505.73398	-14.17212	1308.27222	-961.84595	
2355	23.540	-800.61353	8.78069	-638.77216	769.33899	10.16809	-644.42792	-708.75323	8.07402	496.09625	733.50238	6.90680	505.74402	-14.21600	1308.25195	-961.83752	
2356	23.550	-800.53448	8.92621	-638.81366	769.37701	10.19329	-644.42474	-708.68414	8.01659	496.12292	733.53479	6.96830	505.73190	-14.20077	1308.30090	-961.78271	
2357	23.560	-800.47424	9.12918	-638.77148	769.36597	10.22856	-644.42603	-708.69104	7.99203	496.12662	733.60284	6.94620	505.74658	-14.11576	1308.27637	-961.64374	
2358	23.570	-800.52783	9.05064	-638.78503	769.40582	10.18066	-644.40656	-708.72314	7.97922	496.09464	733.59308	6.94496	505.74240	-14.26510	1308.34851	-961.58301	
2359	23.580	-800.62012	8.80331	-638.81250	769.46674	9.98784	-644.29950	-708.76862	7.89209	496.10956	733.57825	6.97207	505.75470	-14.31443	1308.26575	-961.39655	
2360	23.590	-800.65039	8.58525	-638.88141	769.32611	9.96060	-644.34753	-708.80328	7.98069	496.09787	733.48035	6.91978	505.76166	-14.29681	1308.13513	-961.23767	
2361	23.600	-800.61316	8.65795	-638.87170	769.36023	10.09290	-644.37134	-708.71576	7.95045	496.08868	733.50269	6.93138	505.74600	-14.17833	1308.04395	-961.16077	
2362	23.610	-800.54266	8.91706	-638.81299	769.33563	10.03448	-644.39282	-708.72382	7.93683	496.03622	733.51935	6.97992	505.74484	-14.22690	1308.12268	-961.34741	
2363	23.620	-800.54144	9.04199	-638.72943	769.42236	10.06204	-644.37677	-708.70892	8.00841	496.11005	733.59180	6.98633	505.73889	-14.05963	1308.17676	-961.61401	
2364	23.630	-800.61749	8.90455	-638.76208	769.31866	10.13356	-644.42236	-708.57642	7.89058	496.02084	733.55865	6.95764	505.76605	-14.12943	1308.28894	-961.99792	
2365	23.640	-800.65845	8.78938	-638.75214	769.43451	10.08676	-644.36151	-708.72241	7.88031	496.13727	733.52130	6.95826	505.75247	-14.15586	1308.28564	-962.18164	
2366	23.650	-800.63409	8.74771	-638.85138	769.37628	10.01808	-644.37286	-708.67401	7.65142	496.15326	733.47101	6.89843	505.75949	-14.13119	1308.29077	-962.24982	
2367	23.660	-800.54248	8.93750	-638.82538	769.37482	10.08134	-644.37463	-708.61731	7.58593	496.12329	733.50562	6.90820	505.76050	-14.07295	1308.32593	-962.19287	
2368	23.670	-800.44873	9.10804	-638.79565	769.38232	10.07340	-644.41229	-708.58893	7.71660	496.16623	733.54926	6.94928	505.77841	-14.07067	1308.37329	-961.98834	
2369	23.680	-800.52155	9.04182	-638.72003	769.45453	10.13612	-644.40497	-708.61273	7.81693	496.19479	733.61096	6.97481	505.74228	-14.06136	1308.33411	-961.74042	
2370	23.690	-800.60144	8.94204	-638.75177	769.44763	10.13375	-644.41119	-708.65588	7.81846	496.21030	733.55603	6.99165	505.73770	-14.28390	1308.22546	-961.42957	
2371	23.700	-800.64740	8.74550	-638.83569	769.31921	10.10167	-644.42426	-708.64172	7.73037	496.18985	733.53595	6.96089	505.74597	-14.34315	1308.13074	-961.20319	
2372	23.710	-800.59424	8.77064	-638.81494	769.39911	10.01353	-644.37897	-708.69275	7.71854	496.15591	733.51166	6.95258	505.74692	-14.33492	1308.10828	-961.09595	
2373	23.720	-800.50629	8.91890	-638.81537	769.38245	10.02037	-644.36713	-708.66888	7.77874	496.17984	733.57373	6.99155	505.73608	-14.15318	1308.17773	-961.10883	
2374	23.730	-800.52045	9.02502	-638.78766	769.39136	10.08007	-644.38062	-708.67224	7.87906	496.19861	734.67786	7.07947	505.28589	-14.25124	1308.28589	-961.41400	
